<svg xmlns="http://www.w3.org/2000/svg" xmlns:xlink="http://www.w3.org/1999/xlink" width="42" height="42" viewBox="0 0 42 42">
  <defs>
    <linearGradient id="linear-gradient" x1="-0.637" y1="0.213" x2="0.5" y2="1" gradientUnits="objectBoundingBox">
      <stop offset="0" stop-color="#11998e"/>
      <stop offset="1" stop-color="#38ef7d"/>
    </linearGradient>
  </defs>
  <g id="Group_478" data-name="Group 478" transform="translate(-75 -2828)">
    <circle id="Ellipse_4" data-name="Ellipse 4" cx="21" cy="21" r="21" transform="translate(75 2828)" fill="#02131b"/>
    <g id="video-camera" transform="translate(85.716 2842.561)">
      <g id="Group_59" data-name="Group 59">
        <path id="Path_2" data-name="Path 2" d="M21.177,86.986a.769.769,0,0,0-.749-.034l-5.042,2.521V87.641a2.308,2.308,0,0,0-2.308-2.308H2.308A2.308,2.308,0,0,0,0,87.641v9.232a2.308,2.308,0,0,0,2.308,2.308H13.079a2.308,2.308,0,0,0,2.308-2.308V95.041l5.042,2.525a.769.769,0,0,0,1.113-.692V87.641a.769.769,0,0,0-.365-.655ZM7.694,95.335a3.077,3.077,0,1,1,3.077-3.077,3.077,3.077,0,0,1-3.077,3.077Z" transform="translate(0 -85.333)" fill="url(#linear-gradient)"/>
      </g>
    </g>
  </g>
</svg>
