<svg width="40" height="40" viewBox="0 0 40 40" fill="none" xmlns="http://www.w3.org/2000/svg">
<path d="M20 40C31.0457 40 40 31.0457 40 20C40 8.9543 31.0457 0 20 0C8.9543 0 0 8.9543 0 20C0 31.0457 8.9543 40 20 40Z" fill="#02131B"/>
<path d="M25.4583 25.2313H29V28H25.4583V25.2313Z" fill="url(#paint0_linear)"/>
<path d="M20.998 25.2313H24.4622V28H20.998V25.2313Z" fill="url(#paint1_linear)"/>
<path d="M16.5378 25.2313H20.002V28H16.5378V25.2313Z" fill="url(#paint2_linear)"/>
<path d="M12 25.2313H15.5417V28H12V25.2313Z" fill="url(#paint3_linear)"/>
<path d="M22.1934 20.281V24.2352H23.1895V20.281C24.0106 20.0609 24.6172 19.3105 24.6172 18.4209C24.6172 17.359 23.7533 16.4951 22.6914 16.4951C21.6295 16.4951 20.7656 17.359 20.7656 18.4209C20.7656 19.3106 21.3722 20.0609 22.1934 20.281Z" fill="url(#paint4_linear)"/>
<path d="M17.8105 14.7859V24.2352H18.8066V14.7859C19.6278 14.5658 20.2344 13.8154 20.2344 12.9258C20.2344 11.8639 19.3705 11 18.3086 11C17.2467 11 16.3828 11.8639 16.3828 12.9258C16.3828 13.8155 16.9894 14.5658 17.8105 14.7859Z" fill="url(#paint5_linear)"/>
<path d="M13.4277 19.1217V24.2352H14.4238V19.1217C15.245 18.9016 15.8516 18.1512 15.8516 17.2616C15.8516 16.1997 14.9877 15.3358 13.9258 15.3358C12.8639 15.3358 12 16.1997 12 17.2616C12 18.1512 12.6066 18.9016 13.4277 19.1217Z" fill="url(#paint6_linear)"/>
<path d="M26.5762 16.2136V24.2352H27.5723V16.2136C28.3934 15.9935 29 15.2432 29 14.3535C29 13.2916 28.1361 12.4277 27.0742 12.4277C26.0123 12.4277 25.1484 13.2916 25.1484 14.3535C25.1484 15.2432 25.755 15.9936 26.5762 16.2136Z" fill="url(#paint7_linear)"/>
<defs>
<linearGradient id="paint0_linear" x1="25.26" y1="25.7768" x2="28.4214" y2="28.3464" gradientUnits="userSpaceOnUse">
<stop stop-color="#38EF7D"/>
<stop offset="1" stop-color="#11998E"/>
</linearGradient>
<linearGradient id="paint1_linear" x1="20.8041" y1="25.7768" x2="23.9504" y2="28.2783" gradientUnits="userSpaceOnUse">
<stop stop-color="#38EF7D"/>
<stop offset="1" stop-color="#11998E"/>
</linearGradient>
<linearGradient id="paint2_linear" x1="16.3438" y1="25.7768" x2="19.4902" y2="28.2783" gradientUnits="userSpaceOnUse">
<stop stop-color="#38EF7D"/>
<stop offset="1" stop-color="#11998E"/>
</linearGradient>
<linearGradient id="paint3_linear" x1="11.8017" y1="25.7768" x2="14.9631" y2="28.3464" gradientUnits="userSpaceOnUse">
<stop stop-color="#38EF7D"/>
<stop offset="1" stop-color="#11998E"/>
</linearGradient>
<linearGradient id="paint4_linear" x1="20.5499" y1="18.0199" x2="25.7404" y2="19.6611" gradientUnits="userSpaceOnUse">
<stop stop-color="#38EF7D"/>
<stop offset="1" stop-color="#11998E"/>
</linearGradient>
<linearGradient id="paint5_linear" x1="16.1671" y1="13.6073" x2="21.6878" y2="14.6282" gradientUnits="userSpaceOnUse">
<stop stop-color="#38EF7D"/>
<stop offset="1" stop-color="#11998E"/>
</linearGradient>
<linearGradient id="paint6_linear" x1="11.7843" y1="17.089" x2="17.0923" y2="18.5487" gradientUnits="userSpaceOnUse">
<stop stop-color="#38EF7D"/>
<stop offset="1" stop-color="#11998E"/>
</linearGradient>
<linearGradient id="paint7_linear" x1="24.9327" y1="14.7538" x2="30.407" y2="15.8885" gradientUnits="userSpaceOnUse">
<stop stop-color="#38EF7D"/>
<stop offset="1" stop-color="#11998E"/>
</linearGradient>
</defs>
</svg>
