<svg xmlns="http://www.w3.org/2000/svg" xmlns:xlink="http://www.w3.org/1999/xlink" width="43" height="43" viewBox="0 0 43 43">
  <defs>
    <linearGradient id="linear-gradient" x1="-0.637" y1="0.213" x2="0.5" y2="1" gradientUnits="objectBoundingBox">
      <stop offset="0" stop-color="#11998e"/>
      <stop offset="1" stop-color="#38ef7d"/>
    </linearGradient>
  </defs>
  <g id="Group_207" data-name="Group 207" transform="translate(-161 -1461)">
    <circle id="Ellipse_4" data-name="Ellipse 4" cx="21.5" cy="21.5" r="21.5" transform="translate(161 1461)" fill="#02131b"/>
    <g id="lecture" transform="translate(172.473 1473.41)">
      <path id="Path_3" data-name="Path 3" d="M267.716,32.962h-5.763a1.743,1.743,0,0,0-1.741,1.741v4.943l-.461,1.538a1.159,1.159,0,0,0,1.726,1.317l1.029-.643h5.21a1.743,1.743,0,0,0,1.741-1.741V34.7a1.742,1.742,0,0,0-1.741-1.741Zm-2.282,6.421H264.2a.58.58,0,1,1,0-1.16h1.238a.58.58,0,0,1,0,1.16Zm.928-2.785h-3.094a.58.58,0,1,1,0-1.16h3.094a.58.58,0,1,1,0,1.16Z" transform="translate(-249.656 -32.962)" fill="url(#linear-gradient)"/>
      <path id="Path_4" data-name="Path 4" d="M0,406.962a2.9,2.9,0,0,0,2.9,2.785h14a2.9,2.9,0,0,0,2.9-2.785Z" transform="translate(0 -392.496)" fill="url(#linear-gradient)"/>
      <circle id="Ellipse_5" data-name="Ellipse 5" cx="0.658" cy="0.658" r="0.658" transform="translate(5.528 8.277)" fill="url(#linear-gradient)"/>
      <path id="Path_5" data-name="Path 5" d="M134.924,311.62v1.9h1.934v-1.9a.571.571,0,0,0-.237-.421,1.184,1.184,0,0,0-.73-.236C135.376,310.962,134.924,311.269,134.924,311.62Z" transform="translate(-129.705 -300.209)" fill="url(#linear-gradient)"/>
      <path id="Path_6" data-name="Path 6" d="M52.525,143l-.747.467a2.319,2.319,0,0,1-3.453-2.635l.412-1.375v-2.491H42.666a1.743,1.743,0,0,0-1.741,1.741v6.962a1.732,1.732,0,0,0,.1.58H43.4v-1.9A1.71,1.71,0,0,1,44.1,143a1.818,1.818,0,1,1,2.851,0l.029.022a1.711,1.711,0,0,1,.672,1.327v1.9h9.8a1.733,1.733,0,0,0,.1-.58V143Z" transform="translate(-39.342 -132.94)" fill="url(#linear-gradient)"/>
    </g>
  </g>
</svg>
