<svg width="40" height="40" viewBox="0 0 40 40" fill="none" xmlns="http://www.w3.org/2000/svg">
<path d="M20 40C31.0457 40 40 31.0457 40 20C40 8.9543 31.0457 0 20 0C8.9543 0 0 8.9543 0 20C0 31.0457 8.9543 40 20 40Z" fill="#02131B"/>
<g clip-path="url(#clip0)">
<path d="M27.4649 19.3575C27.5536 17.0414 26.7308 14.6758 24.9115 12.8566C23.1388 11.0839 21.1868 10.6632 21.0717 10.6134L21.0684 10.6141C16.5328 9.36061 13.4023 12.1328 13.3431 12.1592C9.19651 15.4152 8.87593 21.5301 12.557 25.2111C12.9387 25.5928 13.3461 25.9308 13.7731 26.2262V26.0442C13.7731 24.0836 14.9163 22.3852 16.571 21.5801C15.8497 20.9663 15.3909 20.0529 15.3909 19.0339C15.3909 17.1903 16.8907 15.6905 18.7343 15.6905C20.5777 15.6905 22.0777 17.1903 22.0777 19.0339C22.0777 20.0529 21.6188 20.9663 20.8975 21.5801C21.4095 21.8292 21.8724 22.164 22.2678 22.5655C23.2268 20.6658 25.196 19.3595 27.4649 19.3575Z" fill="url(#paint0_linear)"/>
<path d="M21.7693 23.9885C21.109 23.0169 19.995 22.3773 18.7343 22.3773C16.7123 22.3773 15.0673 24.0223 15.0673 26.0442V26.9663C17.2636 27.9811 19.781 28.0245 21.9863 27.1425C21.7664 26.5294 21.6462 25.8692 21.6462 25.1814C21.6462 24.7727 21.6888 24.3737 21.7693 23.9885Z" fill="url(#paint1_linear)"/>
<path d="M18.7343 21.083C19.866 21.083 20.7834 20.1656 20.7834 19.0339C20.7834 17.9021 19.866 16.9847 18.7343 16.9847C17.6025 16.9847 16.6851 17.9021 16.6851 19.0339C16.6851 20.1656 17.6025 21.083 18.7343 21.083Z" fill="url(#paint2_linear)"/>
<path d="M27.4702 20.6516C24.9685 20.6516 22.9405 22.6797 22.9405 25.1814C22.9405 27.6831 24.9685 29.7112 27.4702 29.7112C29.9719 29.7112 32 27.6831 32 25.1814C32 22.6797 29.972 20.6516 27.4702 20.6516ZM27.0126 27.0117L25.1824 25.1814L26.0975 24.2662L27.0126 25.1814L28.843 23.3511L29.7581 24.2662L27.0126 27.0117Z" fill="url(#paint3_linear)"/>
</g>
<defs>
<linearGradient id="paint0_linear" x1="9.02162" y1="13.4285" x2="26.4594" y2="25.5753" gradientUnits="userSpaceOnUse">
<stop stop-color="#38EF7D"/>
<stop offset="1" stop-color="#11998E"/>
</linearGradient>
<linearGradient id="paint1_linear" x1="14.6798" y1="23.4393" x2="20.8395" y2="28.4627" gradientUnits="userSpaceOnUse">
<stop stop-color="#38EF7D"/>
<stop offset="1" stop-color="#11998E"/>
</linearGradient>
<linearGradient id="paint2_linear" x1="16.4556" y1="17.7921" x2="20.7834" y2="20.5421" gradientUnits="userSpaceOnUse">
<stop stop-color="#38EF7D"/>
<stop offset="1" stop-color="#11998E"/>
</linearGradient>
<linearGradient id="paint3_linear" x1="22.4331" y1="22.4364" x2="32" y2="28.5153" gradientUnits="userSpaceOnUse">
<stop stop-color="#38EF7D"/>
<stop offset="1" stop-color="#11998E"/>
</linearGradient>
<clipPath id="clip0">
<rect width="22" height="22" fill="white" transform="translate(10 9)"/>
</clipPath>
</defs>
</svg>
