<svg width="40" height="40" viewBox="0 0 40 40" fill="none" xmlns="http://www.w3.org/2000/svg">
<path d="M20 40C31.0457 40 40 31.0457 40 20C40 8.9543 31.0457 0 20 0C8.9543 0 0 8.9543 0 20C0 31.0457 8.9543 40 20 40Z" fill="#02131B"/>
<path d="M13.3398 20.6504C12.419 20.6504 11.6699 21.3995 11.6699 22.3203C11.6699 23.2411 12.419 23.9902 13.3398 23.9902C14.2607 23.9902 15.0098 23.2411 15.0098 22.3203C15.0098 21.3995 14.2607 20.6504 13.3398 20.6504Z" fill="url(#paint0_linear)"/>
<path d="M14.4531 23.9902H13.3398H12.2266C10.9986 23.9902 10 24.9888 10 26.2168V28.4434C10 28.751 10.249 29 10.5566 29H16.123C16.4307 29 16.6797 28.751 16.6797 28.4434V26.2168C16.6797 24.9888 15.6811 23.9902 14.4531 23.9902Z" fill="url(#paint1_linear)"/>
<path d="M25.6602 20.6504C24.7393 20.6504 23.9902 21.3995 23.9902 22.3203C23.9902 23.2411 24.7393 23.9902 25.6602 23.9902C26.581 23.9902 27.3301 23.2411 27.3301 22.3203C27.3301 21.3995 26.581 20.6504 25.6602 20.6504Z" fill="url(#paint2_linear)"/>
<path d="M26.7734 23.9902H25.6602H24.5469C23.3189 23.9902 22.3203 24.9888 22.3203 26.2168V28.4434C22.3203 28.751 22.5693 29 22.877 29H28.4434C28.751 29 29 28.751 29 28.4434V26.2168C29 24.9888 28.0014 23.9902 26.7734 23.9902Z" fill="url(#paint3_linear)"/>
<path d="M19.5 10H15.0469C13.5098 10 12.2637 11.2461 12.2637 12.7832V16.123C12.2637 17.4674 13.2215 18.5915 14.4902 18.8503V20.5761C14.4902 21.072 15.0898 21.3204 15.4405 20.9697L17.5039 18.9062H19.5C21.0371 18.9062 22.2832 17.6602 22.2832 16.123V12.7832C22.2832 11.2461 21.0371 10 19.5 10ZM19.3369 13.1767L17.1103 15.4033C16.893 15.6207 16.5406 15.6207 16.3232 15.4033L15.2099 14.29C14.9925 14.0726 14.9925 13.7203 15.2099 13.5029C15.4274 13.2855 15.7796 13.2855 15.9971 13.5029L16.7168 14.2226L18.5498 12.3896C18.7672 12.1722 19.1195 12.1722 19.3369 12.3896C19.5544 12.607 19.5544 12.9593 19.3369 13.1767Z" fill="url(#paint4_linear)"/>
<path d="M23.9531 11.1133H23.0056C23.2489 11.6214 23.3965 12.1833 23.3965 12.7832V16.123C23.3965 17.3979 22.7722 18.5215 21.8226 19.2328L23.5595 20.9697C23.9102 21.3204 24.5098 21.072 24.5098 20.5761V18.8503C25.7785 18.5915 26.7363 17.4673 26.7363 16.123V13.8965C26.7363 12.3594 25.4902 11.1133 23.9531 11.1133Z" fill="url(#paint5_linear)"/>
<defs>
<linearGradient id="paint0_linear" x1="11.4829" y1="21.3083" x2="15.0098" y2="23.5494" gradientUnits="userSpaceOnUse">
<stop stop-color="#38EF7D"/>
<stop offset="1" stop-color="#11998E"/>
</linearGradient>
<linearGradient id="paint1_linear" x1="9.62594" y1="24.9772" x2="15.3902" y2="29.8608" gradientUnits="userSpaceOnUse">
<stop stop-color="#38EF7D"/>
<stop offset="1" stop-color="#11998E"/>
</linearGradient>
<linearGradient id="paint2_linear" x1="23.8032" y1="21.3083" x2="27.3301" y2="23.5494" gradientUnits="userSpaceOnUse">
<stop stop-color="#38EF7D"/>
<stop offset="1" stop-color="#11998E"/>
</linearGradient>
<linearGradient id="paint3_linear" x1="21.9462" y1="24.9772" x2="27.7105" y2="29.8608" gradientUnits="userSpaceOnUse">
<stop stop-color="#38EF7D"/>
<stop offset="1" stop-color="#11998E"/>
</linearGradient>
<linearGradient id="paint4_linear" x1="11.7026" y1="12.1934" x2="22.8954" y2="18.5936" gradientUnits="userSpaceOnUse">
<stop stop-color="#38EF7D"/>
<stop offset="1" stop-color="#11998E"/>
</linearGradient>
<linearGradient id="paint5_linear" x1="21.5475" y1="13.0873" x2="28.1868" y2="15.156" gradientUnits="userSpaceOnUse">
<stop stop-color="#38EF7D"/>
<stop offset="1" stop-color="#11998E"/>
</linearGradient>
</defs>
</svg>
