<svg xmlns="http://www.w3.org/2000/svg" xmlns:xlink="http://www.w3.org/1999/xlink" width="49" height="49" viewBox="0 0 49 49">
  <defs>
    <linearGradient id="linear-gradient" x1="-8.704" y1="-3.54" x2="4.528" y2="0.264" gradientUnits="objectBoundingBox">
      <stop offset="0" stop-color="#11998e"/>
      <stop offset="1" stop-color="#38ef7d"/>
    </linearGradient>
  </defs>
  <g id="Group_247" data-name="Group 247" transform="translate(-283 -3374)">
    <circle id="Ellipse_12" data-name="Ellipse 12" cx="24.5" cy="24.5" r="24.5" transform="translate(283 3374)" fill="#02131b"/>
    <g id="magic-wand" transform="translate(297.5 3388.5)">
      <path id="Path_29" data-name="Path 29" d="M12.733,117.327.172,129.89a.586.586,0,0,0,0,.829l1.854,1.854a.586.586,0,0,0,.829,0l12.562-12.563Z" transform="translate(0 -112.744)" fill="url(#linear-gradient)"/>
      <path id="Path_30" data-name="Path 30" d="M351.312,57.721a.586.586,0,0,0,0-.829l-1.854-1.854a.586.586,0,0,0-.829,0l-1.439,1.439,2.682,2.683Z" transform="translate(-333.628 -52.724)" fill="url(#linear-gradient)"/>
      <path id="Path_31" data-name="Path 31" d="M391.4,258.991h-.725v-.725a.586.586,0,0,0-1.172,0v.725h-.725a.586.586,0,1,0,0,1.172h.725v.725a.586.586,0,0,0,1.172,0v-.725h.725a.586.586,0,1,0,0-1.172Z" transform="translate(-373.03 -247.615)" fill="url(#linear-gradient)"/>
      <path id="Path_32" data-name="Path 32" d="M.586,136.682h.725v.725a.586.586,0,0,0,1.172,0v-.725h.725a.586.586,0,1,0,0-1.172H2.483v-.725a.586.586,0,0,0-1.172,0v.725H.586a.586.586,0,1,0,0,1.172Z" transform="translate(0 -128.957)" fill="url(#linear-gradient)"/>
      <path id="Path_33" data-name="Path 33" d="M181.324,151.773a.586.586,0,1,0-.586-.586A.593.593,0,0,0,181.324,151.773Z" transform="translate(-173.677 -144.719)" fill="url(#linear-gradient)"/>
      <path id="Path_34" data-name="Path 34" d="M336.136,361.495a.586.586,0,1,0,.586.586A.592.592,0,0,0,336.136,361.495Z" transform="translate(-322.442 -347.375)" fill="url(#linear-gradient)"/>
      <path id="Path_35" data-name="Path 35" d="M482.574,421.751a.586.586,0,1,0,.586.586A.592.592,0,0,0,482.574,421.751Z" transform="translate(-463.16 -405.277)" fill="url(#linear-gradient)"/>
      <path id="Path_36" data-name="Path 36" d="M482.574,181.9a.586.586,0,1,0-.586-.586A.593.593,0,0,0,482.574,181.9Z" transform="translate(-463.16 -173.67)" fill="url(#linear-gradient)"/>
      <path id="Path_37" data-name="Path 37" d="M30.7,32.326a.586.586,0,1,0-.586-.586A.593.593,0,0,0,30.7,32.326Z" transform="translate(-28.936 -29.937)" fill="url(#linear-gradient)"/>
      <ellipse id="Ellipse_8" data-name="Ellipse 8" cx="1.761" cy="1.761" rx="1.761" ry="1.761" transform="translate(8.237)" fill="url(#linear-gradient)"/>
    </g>
  </g>
</svg>
