<svg width="40" height="40" viewBox="0 0 40 40" fill="none" xmlns="http://www.w3.org/2000/svg">
<path d="M20 40C31.0457 40 40 31.0457 40 20C40 8.9543 31.0457 0 20 0C8.9543 0 0 8.9543 0 20C0 31.0457 8.9543 40 20 40Z" fill="#02131B"/>
<path d="M27.7531 25.7477L23.9223 21.7902C23.6476 21.5063 23.3043 21.3926 23.1556 21.5377C23.0063 21.6819 22.6627 21.5685 22.388 21.2846L22.3333 21.2277C24.0478 18.9728 23.8814 15.7442 21.8225 13.6853C19.5754 11.4382 15.9321 11.4382 13.6853 13.6853C11.4382 15.9323 11.4382 19.5752 13.6853 21.8222C15.7792 23.9165 19.0842 24.0567 21.3438 22.248L21.3678 22.2731C21.642 22.557 21.7441 22.9039 21.5944 23.0483C21.4454 23.1927 21.5468 23.5398 21.8217 23.8232L25.6505 27.7823C25.9252 28.0654 26.3778 28.0739 26.662 27.7989L27.7365 26.7592C28.0196 26.485 28.0273 26.0326 27.7531 25.7477ZM20.5581 20.5577C19.0117 22.1043 16.4954 22.1043 14.9493 20.5582C13.4029 19.0119 13.4032 16.4952 14.9493 14.9492C16.4954 13.4029 19.0117 13.4031 20.5575 14.9494C22.1041 16.4955 22.1041 19.0116 20.5581 20.5577Z" fill="url(#paint0_linear)"/>
<defs>
<linearGradient id="paint0_linear" x1="11.1066" y1="15.152" x2="27.9818" y2="25.8439" gradientUnits="userSpaceOnUse">
<stop stop-color="#38EF7D"/>
<stop offset="1" stop-color="#11998E"/>
</linearGradient>
</defs>
</svg>
