<svg width="40" height="40" viewBox="0 0 40 40" fill="none" xmlns="http://www.w3.org/2000/svg">
<path d="M20 40C31.0457 40 40 31.0457 40 20C40 8.9543 31.0457 0 20 0C8.9543 0 0 8.9543 0 20C0 31.0457 8.9543 40 20 40Z" fill="#02131B"/>
<g clip-path="url(#clip0)">
<path d="M26.1172 13.3828C27.2595 14.5253 28.0591 15.9647 28.4255 17.5382C28.7918 19.1117 28.7102 20.7564 28.19 22.2859C27.6697 23.8154 26.7316 25.1687 25.4819 26.1925C24.2321 27.2164 22.7206 27.8698 21.1186 28.0788C19.2651 28.3169 17.3842 27.9525 15.7537 27.0394C15.6507 26.9821 15.56 26.9049 15.4868 26.8124C15.4137 26.7198 15.3596 26.6138 15.3276 26.5002C15.2956 26.3867 15.2864 26.268 15.3004 26.1509C15.3145 26.0338 15.3515 25.9206 15.4094 25.8179C15.4674 25.7152 15.545 25.6249 15.638 25.5523C15.7309 25.4797 15.8373 25.4261 15.9509 25.3948C16.0646 25.3634 16.1834 25.3548 16.3004 25.3695C16.4174 25.3842 16.5304 25.4219 16.6328 25.4803C17.9263 26.2043 19.4182 26.493 20.8884 26.3038C22.39 26.1126 23.7848 25.4256 24.8516 24.3516C27.5268 21.6764 27.5268 17.3236 24.8516 14.6484C22.1764 11.9733 17.8236 11.9733 15.1485 14.6484C14.0744 15.7152 13.3874 17.11 13.1962 18.6117C13.1241 19.1711 13.1211 19.7372 13.1871 20.2974L12.8418 20.9303L11.3507 19.5961C11.3314 17.8771 11.8248 16.1913 12.7679 14.7539C13.7109 13.3165 15.0609 12.1928 16.6455 11.526C18.2301 10.8593 19.9774 10.6798 21.6644 11.0105C23.3514 11.3412 24.9017 12.1671 26.1172 13.3828ZM14.0356 23.7254L16.5669 19.0848C16.6243 18.9815 16.6608 18.8679 16.6741 18.7505C16.6875 18.6331 16.6774 18.5142 16.6446 18.4007C16.6117 18.2872 16.5567 18.1813 16.4827 18.0892C16.4087 17.997 16.3172 17.9205 16.2135 17.8639C16.1097 17.8073 15.9958 17.7718 15.8783 17.7595C15.7608 17.7472 15.642 17.7582 15.5287 17.7921C15.4155 17.8259 15.3101 17.8818 15.2186 17.9566C15.1271 18.0314 15.0513 18.1235 14.9956 18.2277L13.0051 21.877L9.83891 19.044C9.75155 18.9644 9.64926 18.9028 9.53797 18.8629C9.42667 18.823 9.30857 18.8055 9.19049 18.8115C9.07241 18.8175 8.95669 18.8469 8.85001 18.8979C8.74334 18.9489 8.64782 19.0205 8.56898 19.1086C8.49015 19.1967 8.42955 19.2996 8.39069 19.4112C8.35184 19.5229 8.3355 19.6411 8.34261 19.7592C8.34972 19.8772 8.38015 19.9926 8.43213 20.0988C8.48412 20.205 8.55663 20.2998 8.64548 20.3778L12.6533 23.9638C12.7538 24.0537 12.8734 24.1198 13.0031 24.157C13.1327 24.1942 13.2692 24.2017 13.4021 24.1787C13.535 24.1558 13.6611 24.1031 13.7708 24.0246C13.8805 23.9461 13.971 23.8438 14.0357 23.7254L14.0356 23.7254Z" fill="url(#paint0_linear)"/>
</g>
<defs>
<linearGradient id="paint0_linear" x1="9.49059" y1="22.5959" x2="30.6197" y2="17.8861" gradientUnits="userSpaceOnUse">
<stop stop-color="#38EF7D"/>
<stop offset="1" stop-color="#11998E"/>
</linearGradient>
<clipPath id="clip0">
<rect width="19.0919" height="19.0919" fill="white" transform="translate(6.5 19.5) rotate(-45)"/>
</clipPath>
</defs>
</svg>
