<svg width="30" height="25" viewBox="0 0 30 25" fill="none" xmlns="http://www.w3.org/2000/svg">
<path d="M25.6778 13.313H23.3618C23.604 13.9766 23.7276 14.6776 23.7268 15.384V24.136C23.7269 24.4307 23.6765 24.7233 23.5778 25.001H27.4058C28.093 24.9991 28.7514 24.7254 29.2373 24.2395C29.7232 23.7536 29.997 23.0951 29.9988 22.408V17.637C29.998 16.491 29.5426 15.392 28.7325 14.5814C27.9225 13.7707 26.8239 13.3146 25.6778 13.313Z" fill="#FF8C00"/>
<path d="M6.273 15.384C6.2723 14.6776 6.39585 13.9766 6.638 13.313H4.322C3.17614 13.3143 2.07759 13.7701 1.26735 14.5803C0.4571 15.3906 0.00132332 16.4891 0 17.635L0 22.406C0.00184751 23.0931 0.275631 23.7516 0.761513 24.2375C1.24739 24.7233 1.90586 24.9971 2.593 24.999H6.422C6.32344 24.7216 6.27305 24.4294 6.273 24.135V15.384Z" fill="#FF8C00"/>
<path d="M17.6458 11.061H12.3518C11.2059 11.0624 10.1074 11.5181 9.29713 12.3284C8.48689 13.1386 8.03111 14.2372 8.02979 15.383V24.135C8.02979 24.3645 8.12092 24.5845 8.28314 24.7467C8.44536 24.9089 8.66538 25 8.89479 25H21.1008C21.2144 25.0002 21.327 24.9779 21.432 24.9345C21.537 24.891 21.6324 24.8273 21.7127 24.747C21.7931 24.6666 21.8568 24.5712 21.9002 24.4662C21.9436 24.3612 21.9659 24.2487 21.9658 24.135V15.383C21.9645 14.2375 21.509 13.1393 20.6992 12.3291C19.8893 11.5189 18.7913 11.0629 17.6458 11.061V11.061Z" fill="#FF8C00"/>
<path d="M14.9998 0C13.9713 0 12.966 0.304975 12.1108 0.876358C11.2557 1.44774 10.5892 2.25987 10.1956 3.21004C9.80206 4.16022 9.69908 5.20577 9.89972 6.21447C10.1004 7.22317 10.5956 8.14972 11.3228 8.87696C12.0501 9.60419 12.9766 10.0994 13.9853 10.3001C14.994 10.5007 16.0396 10.3977 16.9898 10.0042C17.9399 9.6106 18.7521 8.9441 19.3234 8.08897C19.8948 7.23383 20.1998 6.22846 20.1998 5.2C20.1998 3.82088 19.652 2.49823 18.6768 1.52304C17.7016 0.547855 16.3789 0 14.9998 0Z" fill="#FF8C00"/>
<path d="M5.84396 4.73486C5.07556 4.73526 4.32451 4.96345 3.68577 5.3906C3.04703 5.81775 2.54926 6.42468 2.25538 7.13467C1.96151 7.84467 1.88472 8.62585 2.03473 9.37947C2.18474 10.1331 2.5548 10.8253 3.09814 11.3687C3.64149 11.912 4.33373 12.2821 5.08735 12.4321C5.84098 12.5821 6.62215 12.5053 7.33215 12.2114C8.04214 11.9176 8.64907 11.4198 9.07622 10.7811C9.50337 10.1423 9.73157 9.39127 9.73196 8.62286C9.73091 7.59203 9.32094 6.60371 8.59203 5.8748C7.86311 5.14589 6.8748 4.73592 5.84396 4.73486V4.73486Z" fill="#FF8C00"/>
<path d="M24.157 4.73486C23.3881 4.73486 22.6364 4.96289 21.997 5.39011C21.3576 5.81733 20.8593 6.42455 20.565 7.13499C20.2707 7.84543 20.1937 8.62717 20.3438 9.38137C20.4938 10.1356 20.8641 10.8283 21.4078 11.3721C21.9516 11.9158 22.6443 12.2861 23.3985 12.4361C24.1527 12.5862 24.9345 12.5092 25.6449 12.2149C26.3554 11.9206 26.9626 11.4223 27.3898 10.7829C27.817 10.1435 28.045 9.39184 28.045 8.62286C28.044 7.59203 27.634 6.60371 26.9051 5.8748C26.1762 5.14589 25.1879 4.73592 24.157 4.73486V4.73486Z" fill="#FF8C00"/>
</svg>
