<svg width="31" height="27" viewBox="0 0 31 27" fill="none" xmlns="http://www.w3.org/2000/svg">
<path d="M19.8931 26.5146L15.1021 23.9946L10.3111 26.5146L11.2261 21.1776L7.3501 17.3986L12.7061 16.6206L15.1061 11.7656L17.5061 16.6206L22.8621 17.3986L18.9861 21.1776L19.8931 26.5146Z" fill="#FF8C00"/>
<path d="M11.189 13.4768L6.915 11.2298L2.641 13.4768L3.457 8.71678L0 5.34678L4.778 4.65178L6.915 0.321777L9.052 4.65278L13.83 5.34778L10.373 8.71778L11.189 13.4768Z" fill="#FF8C00"/>
<path d="M27.4102 13.4768L23.1362 11.2298L18.8622 13.4768L19.6782 8.7168L16.2212 5.3468L20.9992 4.6518L23.1362 0.320801L25.2732 4.6518L30.0512 5.3468L26.5942 8.7168L27.4102 13.4768Z" fill="#FF8C00"/>
</svg>
