<svg width="40" height="40" viewBox="0 0 40 40" fill="none" xmlns="http://www.w3.org/2000/svg">
<g clip-path="url(#clip0)">
<path d="M2.24844 23.1369L2.186 23.1233L28.9522 23.1233L20.5379 31.5561C20.1258 31.9678 19.8998 32.5256 19.8998 33.1109C19.8998 33.6963 20.1258 34.2501 20.5379 34.6628L21.8471 35.9727C22.2589 36.3844 22.8075 36.6121 23.3925 36.6121C23.9779 36.6121 24.5268 36.386 24.9385 35.9743L39.3623 21.5519C39.7756 21.1386 40.0016 20.588 40 20.0023C40.0016 19.4134 39.7756 18.8625 39.3623 18.4498L24.9385 4.02604C24.5268 3.61466 23.9782 3.38832 23.3925 3.38832C22.8075 3.38832 22.2589 3.61499 21.8471 4.02604L20.5379 5.33596C20.1258 5.74702 19.8998 6.29596 19.8998 6.88133C19.8998 7.46637 20.1258 7.98637 20.5379 8.39775L29.0471 16.8777L2.21852 16.8777C1.01299 16.8777 -1.41313e-05 17.9168 -1.42366e-05 19.1216L-1.43986e-05 20.9743C-1.45039e-05 22.1792 1.04291 23.1369 2.24844 23.1369Z" fill="#37EC7E"/>
</g>
<defs>
<clipPath id="clip0">
<rect width="40" height="40" fill="white" transform="translate(40 40) rotate(-180)"/>
</clipPath>
</defs>
</svg>
