<svg width="40" height="40" viewBox="0 0 40 40" fill="none" xmlns="http://www.w3.org/2000/svg">
<path d="M20 40C31.0457 40 40 31.0457 40 20C40 8.9543 31.0457 0 20 0C8.9543 0 0 8.9543 0 20C0 31.0457 8.9543 40 20 40Z" fill="#02131B"/>
<path d="M14.1992 16.8555V14.7461C14.1992 14.6613 14.2114 14.5797 14.2242 14.4985C13.5832 14.8607 13.1445 15.5406 13.1445 16.3281C13.1445 17.176 13.6499 17.9036 14.3728 18.2385C14.2635 17.7944 14.1992 17.3328 14.1992 16.8555Z" fill="#FF8C00"/>
<path d="M20 22.6562C19.1404 22.6562 18.3278 22.4606 17.5933 22.1234C17.7099 22.3901 17.8597 22.6433 18.0642 22.8642C19.0416 23.9204 20.8502 23.9549 21.8653 22.9379C22.1042 22.6987 22.2882 22.42 22.4184 22.1187C21.681 22.4592 20.8641 22.6562 20 22.6562Z" fill="#FF8C00"/>
<path d="M25.43 21.9454C25.396 21.9335 25.361 21.9253 25.3249 21.9207L23.6305 21.7004C23.5034 22.4472 23.1577 23.1369 22.6115 23.6835C21.9142 24.3812 20.9867 24.7654 20 24.7654C18.9747 24.7654 17.9869 24.3334 17.2902 23.5805C16.7963 23.0466 16.4915 22.3966 16.3731 21.6997L14.6756 21.9202C14.6396 21.9248 14.6045 21.933 14.57 21.9449C13.0863 22.4614 12.0898 23.8642 12.0898 25.4354V27.4725C12.0898 27.7639 12.3257 27.9998 12.6172 27.9998H27.3828C27.6743 27.9998 27.9102 27.7639 27.9102 27.4725V25.4344C27.9102 23.8637 26.9137 22.4614 25.43 21.9454ZM25.2734 25.8201H23.1641C22.8726 25.8201 22.6367 25.5843 22.6367 25.2928C22.6367 25.0013 22.8726 24.7654 23.1641 24.7654H25.2734C25.5649 24.7654 25.8008 25.0013 25.8008 25.2928C25.8008 25.5843 25.5649 25.8201 25.2734 25.8201Z" fill="#FF8C00"/>
<path d="M16.6348 15.2734L17.0163 16.0366C17.106 16.2164 17.2867 16.3281 17.4881 16.3281H22.5123C22.7137 16.3281 22.8944 16.2164 22.984 16.0366L23.3656 15.2734H16.6348Z" fill="#FF8C00"/>
<path d="M21.0547 10H18.9453C16.9101 10 15.2539 11.6562 15.2539 13.6914V14.2188H24.7461V13.6914C24.7461 11.6562 23.0899 10 21.0547 10ZM20 13.1641C19.7088 13.1641 19.4727 12.928 19.4727 12.6367C19.4727 12.3454 19.7088 12.1094 20 12.1094C20.2912 12.1094 20.5273 12.3454 20.5273 12.6367C20.5273 12.928 20.2912 13.1641 20 13.1641Z" fill="#FF8C00"/>
<path d="M24.5447 15.2734L23.9273 16.5084C23.6574 17.0476 23.1151 17.3828 22.5121 17.3828H17.4879C16.8849 17.3828 16.3426 17.0476 16.0727 16.5084C16.0727 16.5084 15.8158 15.9944 15.6334 15.6296C15.533 15.429 15.4553 15.2734 15.4553 15.2734H15.2539V16.8555C15.2539 19.4726 17.3829 21.6016 20 21.6016C22.6453 21.6016 24.7461 19.4374 24.7461 16.8555V15.2734H24.5447Z" fill="#FF8C00"/>
<path d="M25.7668 14.4214C25.7889 14.5264 25.8009 14.6348 25.8009 14.7462V16.8556C25.801 17.3546 25.7309 17.8365 25.6118 18.2989C26.4134 17.9997 26.9885 17.2329 26.9885 16.3282C26.9885 15.483 26.4861 14.7577 25.7668 14.4214Z" fill="#FF8C00"/>
</svg>
