<svg width="40" height="40" viewBox="0 0 40 40" fill="none" xmlns="http://www.w3.org/2000/svg">
<path d="M20 40C31.0457 40 40 31.0457 40 20C40 8.9543 31.0457 0 20 0C8.9543 0 0 8.9543 0 20C0 31.0457 8.9543 40 20 40Z" fill="#02131B"/>
<path d="M25.3236 16.1929C24.9811 17.5025 24.1818 17.791 23.7554 17.8488C23.4927 18.374 22.9152 19.4473 22.3376 19.9866C22.1067 20.2021 21.8067 20.384 21.4459 20.5272C20.9852 20.71 20.4987 20.8027 19.9999 20.8027C19.5012 20.8027 19.0147 20.71 18.554 20.5272C18.1933 20.3841 17.8932 20.2022 17.6623 19.9866C17.0845 19.4474 16.5071 18.374 16.2444 17.8488C15.8181 17.791 15.0188 17.5026 14.6763 16.1929C14.4931 15.4926 14.54 14.9217 14.8158 14.4961C14.9377 14.308 15.0854 14.1799 15.223 14.0931C15.2234 13.9533 15.2293 13.7783 15.2455 13.5792C14.9978 13.235 14.661 12.4923 15.0781 11.2901C15.5189 10.0192 16.5157 9.82296 16.9968 9.80595C17.1594 9.5036 17.4667 9.07433 18.0247 8.67968C18.6441 8.24136 19.4529 8 20.3021 8C21.347 8 22.3985 8.36777 23.3428 9.06356C24.8738 10.1916 24.7426 12.694 24.7051 13.1483C24.7607 13.5292 24.7761 13.8595 24.7768 14.093C24.9143 14.1798 25.0621 14.3079 25.184 14.496C25.4598 14.9217 25.5067 15.4925 25.3236 16.1929ZM29.8011 25.9447V29.4968C29.8011 29.7746 29.5757 30 29.2978 30H10.702C10.4241 30 10.1987 29.7746 10.1987 29.4968V25.9447C10.1987 24.4896 11.0718 23.2 12.4229 22.6596L16.8228 20.8996C16.9494 20.8491 17.0911 20.8518 17.2156 20.9078C17.34 20.9635 17.4365 21.0675 17.4828 21.1957L18.5889 24.2537L18.808 23.6241L18.4595 22.7723C18.3961 22.6171 18.414 22.4404 18.5075 22.3012C18.601 22.162 18.7576 22.0785 18.9253 22.0785H21.0746C21.2423 22.0785 21.399 22.162 21.4924 22.3012C21.5859 22.4404 21.6038 22.6171 21.5404 22.7723L21.1919 23.6241L21.4109 24.2537L22.5171 21.1957C22.5634 21.0675 22.6599 20.9635 22.7843 20.9078C22.9088 20.8519 23.0506 20.8492 23.1771 20.8996L27.577 22.6596C28.9281 23.2 29.8011 24.4896 29.8011 25.9447ZM27.1222 26.3309C27.1222 26.053 26.8968 25.8277 26.6189 25.8277H23.2401C22.9623 25.8277 22.7369 26.053 22.7369 26.3309V27.9001C22.7369 28.1779 22.9623 28.4033 23.2401 28.4033H26.6189C26.8968 28.4033 27.1222 28.1779 27.1222 27.9001V26.3309Z" fill="#FF8C00"/>
</svg>
