<?xml version="1.0" encoding="UTF-8"?>
<svg xmlns="http://www.w3.org/2000/svg" xmlns:xlink="http://www.w3.org/1999/xlink" width="375pt" height="374.999991pt" viewBox="0 0 375 374.999991" version="1.2">
<defs>
<clipPath id="clip1">
  <path d="M 0 55.546875 L 375 55.546875 L 375 319 L 0 319 Z M 0 55.546875 "/>
</clipPath>
</defs>
<g id="surface1">
<g clip-path="url(#clip1)" clip-rule="nonzero">
<path style=" stroke:none;fill-rule:nonzero;fill:rgb(100%,54.899597%,0%);fill-opacity:1;" d="M 366.8125 96.964844 C 366.277344 94.984375 365.613281 93.046875 364.824219 91.152344 C 364.035156 89.257812 363.125 87.421875 362.097656 85.648438 C 361.070312 83.871094 359.929688 82.167969 358.679688 80.542969 C 357.429688 78.914062 356.078125 77.375 354.628906 75.925781 C 353.179688 74.472656 351.640625 73.125 350.011719 71.871094 C 348.386719 70.621094 346.6875 69.480469 344.910156 68.453125 C 343.136719 67.425781 341.300781 66.515625 339.40625 65.726562 C 337.515625 64.9375 335.578125 64.273438 333.597656 63.734375 C 304.476562 55.78125 187.265625 55.78125 187.265625 55.78125 C 187.265625 55.78125 70.050781 56.015625 40.921875 63.96875 C 38.941406 64.507812 37.003906 65.171875 35.113281 65.960938 C 33.21875 66.75 31.382812 67.660156 29.609375 68.6875 C 27.832031 69.714844 26.132812 70.855469 24.507812 72.105469 C 22.878906 73.359375 21.339844 74.707031 19.890625 76.160156 C 18.441406 77.609375 17.089844 79.148438 15.839844 80.777344 C 14.589844 82.402344 13.449219 84.105469 12.421875 85.882812 C 11.394531 87.65625 10.484375 89.492188 9.695312 91.386719 C 8.90625 93.28125 8.242188 95.21875 7.703125 97.199219 C 0 126.335938 0 187.253906 0 187.253906 C 0 187.253906 0 248.171875 7.945312 277.542969 C 8.480469 279.523438 9.144531 281.460938 9.933594 283.355469 C 10.722656 285.25 11.632812 287.085938 12.660156 288.859375 C 13.691406 290.636719 14.828125 292.335938 16.078125 293.964844 C 17.328125 295.59375 18.679688 297.132812 20.128906 298.582031 C 21.582031 300.035156 23.121094 301.382812 24.746094 302.636719 C 26.375 303.886719 28.074219 305.023438 29.847656 306.054688 C 31.625 307.082031 33.457031 307.992188 35.351562 308.78125 C 37.246094 309.570312 39.183594 310.234375 41.164062 310.773438 C 70.285156 318.726562 187.5 318.726562 187.5 318.726562 C 187.5 318.726562 304.714844 318.726562 333.84375 310.777344 C 335.824219 310.242188 337.761719 309.578125 339.652344 308.789062 C 341.546875 307.996094 343.382812 307.089844 345.15625 306.058594 C 346.933594 305.03125 348.632812 303.890625 350.257812 302.640625 C 351.886719 301.390625 353.425781 300.039062 354.875 298.589844 C 356.324219 297.136719 357.675781 295.597656 358.925781 293.972656 C 360.175781 292.34375 361.316406 290.640625 362.34375 288.867188 C 363.371094 287.089844 364.28125 285.257812 365.070312 283.363281 C 365.859375 281.46875 366.523438 279.53125 367.058594 277.550781 C 375 248.414062 375 187.253906 375 187.253906 C 375 187.253906 374.765625 126.335938 366.8125 96.964844 Z M 366.8125 96.964844 "/>
</g>
<path style=" stroke:none;fill-rule:nonzero;fill:rgb(100%,100%,100%);fill-opacity:1;" d="M 149.953125 243.59375 L 247.1875 187.253906 L 149.945312 130.914062 Z M 149.953125 243.59375 "/>
</g>
</svg>
