<?xml version="1.0" encoding="UTF-8"?>
<svg xmlns="http://www.w3.org/2000/svg" xmlns:xlink="http://www.w3.org/1999/xlink" width="375pt" height="374.999991pt" viewBox="0 0 375 374.999991" version="1.2">
<g id="surface1">
<path style=" stroke:none;fill-rule:nonzero;fill:rgb(100%,54.899597%,0%);fill-opacity:1;" d="M 287.921875 66.960938 C 276.804688 66.960938 267.765625 75.988281 267.765625 87.078125 C 267.765625 98.195312 276.804688 107.234375 287.921875 107.234375 C 299.011719 107.234375 308.039062 98.195312 308.039062 87.078125 C 308.039062 75.988281 299.011719 66.960938 287.921875 66.960938 "/>
<path style=" stroke:none;fill-rule:nonzero;fill:rgb(100%,54.899597%,0%);fill-opacity:1;" d="M 187.5 252.015625 C 151.925781 252.015625 122.984375 223.070312 122.984375 187.5 C 122.984375 151.925781 151.925781 122.984375 187.5 122.984375 C 223.070312 122.984375 252.011719 151.925781 252.011719 187.5 C 252.011719 223.070312 223.070312 252.015625 187.5 252.015625 Z M 187.5 94.503906 C 136.222656 94.503906 94.503906 136.222656 94.503906 187.5 C 94.503906 238.773438 136.222656 280.492188 187.5 280.492188 C 238.773438 280.492188 280.492188 238.773438 280.492188 187.5 C 280.492188 136.222656 238.773438 94.503906 187.5 94.503906 "/>
<path style=" stroke:none;fill-rule:nonzero;fill:rgb(100%,54.899597%,0%);fill-opacity:1;" d="M 346.5 274.109375 C 346.5 314.089844 314.089844 346.5 274.109375 346.5 L 100.890625 346.5 C 60.910156 346.5 28.5 314.089844 28.5 274.109375 L 28.5 100.890625 C 28.5 60.910156 60.910156 28.5 100.890625 28.5 L 274.109375 28.5 C 314.089844 28.5 346.5 60.910156 346.5 100.890625 Z M 375 100.867188 C 375 45.160156 329.839844 0 274.128906 0 L 100.867188 0 C 45.160156 0 0 45.160156 0 100.867188 L 0 274.128906 C 0 329.839844 45.160156 375 100.867188 375 L 274.128906 375 C 329.839844 375 375 329.839844 375 274.128906 L 375 100.867188 "/>
</g>
</svg>
