<?xml version="1.0" encoding="UTF-8"?>
<svg xmlns="http://www.w3.org/2000/svg" xmlns:xlink="http://www.w3.org/1999/xlink" width="375pt" height="374.999991pt" viewBox="0 0 375 374.999991" version="1.2">
<defs>
<clipPath id="clip1">
  <path d="M 0.734375 29.195312 L 374 29.195312 L 374 346.3125 L 0.734375 346.3125 Z M 0.734375 29.195312 "/>
</clipPath>
</defs>
<g id="surface1">
<g clip-path="url(#clip1)" clip-rule="nonzero">
<path style=" stroke:none;fill-rule:nonzero;fill:rgb(100%,54.899597%,0%);fill-opacity:1;" d="M 372.429688 108.824219 C 370.59375 105.914062 367.046875 104.542969 363.746094 105.519531 C 357.59375 107.324219 349.773438 108.957031 340.527344 110.382812 C 349.097656 106.007812 355.925781 101.296875 360.800781 96.414062 C 363.445312 93.765625 363.804688 89.617188 361.664062 86.554688 C 359.527344 83.496094 355.496094 82.425781 352.117188 84.003906 C 343.171875 88.207031 333.421875 90.367188 323.144531 90.425781 C 305.644531 52.851562 274.402344 38.9375 273.199219 38.433594 C 254.128906 29.757812 235.953125 27.167969 219.710938 30.769531 C 176.203125 40.441406 156.304688 92.265625 162.8125 134.71875 C 151.238281 133.910156 89.632812 127.714844 12.214844 83.703125 C 9.8125 82.332031 6.867188 82.371094 4.488281 83.777344 C 2.125 85.203125 0.679688 87.777344 0.734375 90.539062 C 1.636719 136.503906 43.570312 158.453125 61.574219 165.738281 C 57.769531 166.132812 51.917969 166.226562 46.234375 165.980469 C 42.820312 165.832031 39.671875 168.007812 38.621094 171.296875 C 37.550781 174.582031 38.808594 178.167969 41.65625 180.0625 C 54.261719 188.476562 66.882812 193.976562 79.1875 196.457031 C 76.523438 196.644531 73.765625 196.757812 71.066406 196.851562 C 67.632812 196.964844 64.6875 199.328125 63.863281 202.652344 C 63.019531 205.976562 64.480469 209.46875 67.445312 211.175781 C 78.960938 217.878906 96.832031 225.859375 116.675781 225.859375 L 118.101562 225.839844 C 115.90625 226.648438 113.449219 227.363281 110.785156 227.964844 C 109.960938 228.132812 109.15625 228.300781 108.328125 228.453125 C 104.859375 229.109375 102.292969 232.039062 102.085938 235.566406 C 101.878906 239.097656 104.089844 242.308594 107.449219 243.359375 C 122.039062 247.921875 135.65625 248.972656 147.207031 246.402344 C 149.382812 245.914062 151.539062 245.292969 153.585938 244.542969 L 153.601562 244.542969 C 153.285156 256.335938 147.078125 296.011719 80.460938 310.824219 L 79.578125 311.011719 C 75.414062 311.953125 66.5625 313.023438 55.367188 313.023438 C 50.753906 313.023438 46.140625 312.851562 41.621094 312.496094 C 37.90625 312.175781 34.53125 314.617188 33.59375 318.222656 C 32.65625 321.828125 34.417969 325.582031 37.792969 327.140625 C 63.320312 338.953125 91.355469 345.410156 121.121094 346.3125 C 121.214844 346.3125 121.289062 346.3125 121.363281 346.3125 C 137.324219 346.3125 153.285156 344.566406 168.8125 341.113281 C 197.28125 334.785156 224.925781 322.617188 250.996094 304.984375 L 251.015625 304.984375 C 251.59375 304.761719 252.140625 304.460938 252.644531 304.121094 C 289.761719 278.492188 317.046875 242.609375 333.777344 197.488281 C 333.832031 197.339844 333.890625 197.1875 333.945312 197.019531 C 340.699219 174.429688 343.042969 154.003906 340.902344 136.316406 C 354.089844 132.050781 364.402344 125.929688 371.566406 118.082031 C 373.894531 115.546875 374.25 111.773438 372.429688 108.824219 Z M 372.429688 108.824219 "/>
</g>
</g>
</svg>
